<svg width="24" height="33" viewBox="0 0 24 33" fill="none" xmlns="http://www.w3.org/2000/svg">
	<path d="M13.1067 2.46796H23.1756V0.000488281H0.251953V2.46796H10.3208V4.92419C10.3208 4.92419 11.208 4.90977 11.752 4.92419C12.2959 4.93861 13.1067 4.99806 13.1067 4.99806V2.46796Z" fill="#E9C46A" />
	<path fillRule="evenodd" clipRule="evenodd" d="M13.1067 4.99806C14.2073 5.14499 15.199 5.43582 16.0816 5.87054C17.4148 6.52721 18.5093 7.40276 19.3649 8.49721C20.2405 9.57175 20.8872 10.7458 21.3051 12.0193C21.7429 13.2929 21.9618 14.5564 21.9618 15.8101C21.9618 16.9045 21.7926 18.0189 21.4543 19.1531C21.1359 20.2675 20.6484 21.3321 19.9918 22.3469C19.3351 23.3419 18.5093 24.2075 17.5143 24.9437C16.5194 25.6601 15.3453 26.1675 13.9922 26.466C14.4897 26.466 14.9474 26.5058 15.3652 26.5854C15.803 26.6849 16.2507 26.864 16.7084 27.1227C17.1661 27.4012 17.6835 27.8191 18.2605 28.3763C18.957 29.0131 19.544 29.5503 20.0216 29.9881C20.4992 30.4259 20.9071 30.7741 21.2454 31.0328C21.5837 31.2915 21.8921 31.4805 22.1707 31.5999C22.4493 31.7193 22.7378 31.779 23.0363 31.779V32.764H22.0811C21.3648 32.764 20.738 32.7342 20.2007 32.6745C19.6833 32.6347 19.1759 32.4954 18.6784 32.2566C18.2008 32.0377 17.6536 31.6497 17.0368 31.0925C16.1413 30.2767 15.3851 29.5404 14.7683 28.8837C14.1713 28.2271 13.6141 27.6997 13.0968 27.3018C12.5794 26.9237 12.0023 26.7346 11.3655 26.7346C9.51493 26.6948 7.92301 26.3566 6.58978 25.7198C5.27645 25.0631 4.2019 24.2075 3.36615 23.1528C2.53039 22.0982 1.91352 20.9341 1.51554 19.6605C1.13746 18.3671 0.948418 17.0836 0.948418 15.8101C0.948418 14.5564 1.15736 13.2929 1.57524 12.0193C1.99311 10.7259 2.62988 9.5419 3.48554 8.46736C4.3611 7.39281 5.44559 6.52721 6.73902 5.87054C7.7922 5.34395 8.98614 5.0285 10.3208 4.92419C10.3208 4.92419 11.208 4.90977 11.752 4.92419C12.2959 4.93861 13.1067 4.99806 13.1067 4.99806ZM7.99266 6.88539C8.68657 6.48676 9.46263 6.23601 10.3208 6.13315C10.3208 6.13315 11.1592 6.08535 11.752 6.13315C12.8949 6.22531 13.1067 6.34433 13.1067 6.34433C13.6111 6.49779 14.0853 6.71794 14.5295 7.00478C15.5045 7.60175 16.3204 8.39771 16.9771 9.39266C17.6337 10.3876 18.1312 11.492 18.4695 12.7058C18.8078 13.9197 18.9769 15.1435 18.9769 16.3772C18.9769 17.4717 18.8177 18.5661 18.4993 19.6605C18.2008 20.7351 17.7432 21.7201 17.1263 22.6155C16.5293 23.4911 15.7732 24.1975 14.8578 24.7348C14.3275 25.0345 13.7438 25.2474 13.1067 25.3735C13.1067 25.3735 12.2833 25.4936 11.752 25.5005C11.1917 25.5078 10.3208 25.3976 10.3208 25.3976C9.52748 25.2539 8.81111 24.9732 8.17175 24.5557C7.1967 23.9189 6.39079 23.0832 5.75402 22.0484C5.11726 21.0137 4.63968 19.8993 4.3213 18.7054C4.02281 17.5114 3.87357 16.3673 3.87357 15.2728C3.87357 14.1585 4.02281 13.064 4.3213 11.9895C4.63968 10.895 5.09736 9.91003 5.69433 9.03448C6.3112 8.13902 7.07731 7.42266 7.99266 6.88539Z" fill="#E63946" />
	<path d="M10.3208 6.13315V25.3976C10.3208 25.3976 11.1917 25.5078 11.752 25.5005C12.2833 25.4936 13.1067 25.3735 13.1067 25.3735V6.34433C13.1067 6.34433 12.8949 6.22531 11.752 6.13315C11.1592 6.08535 10.3208 6.13315 10.3208 6.13315Z" fill="#E9C46A" />
</svg>
